<?xml version="1.0" encoding="UTF-8"?>
<svg width="43px" height="42px" viewBox="0 0 43 42" version="1.1" xmlns="http://www.w3.org/2000/svg" xmlns:xlink="http://www.w3.org/1999/xlink">
    <!-- Generator: Sketch 64 (93537) - https://sketch.com -->
    <title>Group 7</title>
    <desc>Created with Sketch.</desc>
    <g id="Page-1" stroke="none" stroke-width="1" fill="none" fill-rule="evenodd">
        <g id="Group-7" transform="translate(0.503734, 0.000000)">
            <g id="Group-4-Copy" fill="#42524A">
                <circle id="Oval-Copy-6" cx="20.9965069" cy="20.9965069" r="20.9965069"></circle>
            </g>
            <path d="M8.51755902,30.0448826 C10.9544511,31.6085727 13.8491899,32.5200171 16.9595734,32.5200171 C27.1841096,32.5200171 32.9608397,23.8836037 32.6124088,16.1363266 C33.688508,15.3619176 34.6222605,14.3920473 35.3605516,13.2862039 C34.3726224,13.7238672 33.310333,14.020246 32.1981159,14.1530321 C33.3337033,13.4721046 34.2079676,12.3938808 34.6180113,11.1063859 C33.5546595,11.7373859 32.3755182,12.1962949 31.1220167,12.4438084 C30.1170908,11.3730206 28.6861869,10.7048405 27.101251,10.7048405 C23.5468304,10.7048405 20.9346606,14.0213082 21.7377515,17.466313 C17.1603461,17.2368585 13.1013381,15.044293 10.3861262,11.7118909 C8.9435371,14.1880877 9.63827441,17.4270083 12.0911008,19.0650587 C11.1881547,19.0374391 10.3372609,18.7878011 9.59578283,18.3766951 C9.53629462,20.9283144 11.3644948,23.3142165 14.0127824,23.8464236 C13.2373111,24.0567569 12.3885418,24.1045599 11.5270251,23.939905 C12.2260116,26.1282213 14.2602959,27.7205933 16.6706307,27.7652094 C14.3559019,29.5806621 11.4388551,30.3901267 8.51755902,30.0448826" id="Fill-1-Copy" fill="#FFFFFF"></path>
        </g>
    </g>
</svg>