<?xml version="1.0" encoding="UTF-8"?>
<svg width="24px" height="23px" viewBox="0 0 24 23" version="1.1" xmlns="http://www.w3.org/2000/svg" xmlns:xlink="http://www.w3.org/1999/xlink">
    <title>Group 16 Copy 7</title>
    <defs>
        <polygon id="path-1" points="-3.27402135e-05 0.0143893238 1.93371886 0.0143893238 1.93371886 9.94285907 -3.27402135e-05 9.94285907"></polygon>
        <polygon id="path-3" points="0.0799270463 0.0135053381 6.74517972 0.0135053381 6.74517972 1.20303915 0.0799270463 1.20303915"></polygon>
        <polygon id="path-5" points="0 22.9864947 23.2967082 22.9864947 23.2967082 0.0818505338 0 0.0818505338"></polygon>
    </defs>
    <g id="Page-1" stroke="none" stroke-width="1" fill="none" fill-rule="evenodd">
        <g id="Group-16-Copy-7">
            <path d="M1.29700356,4.04398932 L1.2342242,4.05913167 C0.369718861,4.26801423 -0.163619217,5.14135943 0.0453451957,6.00594662 L1.29700356,11.1838114 L1.29700356,4.04398932 Z" id="Fill-1" fill="#9D4747"></path>
            <path d="M3.75131637,21.3373947 L3.85150142,21.7518039 C3.95266868,22.1706331 4.21098897,22.5249641 4.57866157,22.7494801 C4.83518114,22.9060601 5.12337687,22.9864374 5.41640178,22.9864374 C5.54351566,22.9864374 5.67161174,22.971295 5.79839822,22.9406829 L12.4312381,21.3373947 L3.75131637,21.3373947 Z" id="Fill-3" fill="#9D4747"></path>
            <g id="Group-7" transform="translate(21.362989, 9.235605)">
                <mask id="mask-2" fill="white">
                    <use xlink:href="#path-1"></use>
                </mask>
                <g id="Clip-6"></g>
                <path d="M1.88842278,7.82677722 L-3.27402135e-05,0.0143893238 L-3.27402135e-05,9.94285907 L0.699543772,9.77367402 C1.56404911,9.56470961 2.09738719,8.69136441 1.88842278,7.82677722" id="Fill-5" fill="#9D4747" mask="url(#mask-2)"></path>
            </g>
            <g id="Group-10" transform="translate(12.686833, 0.068345)">
                <mask id="mask-4" fill="white">
                    <use xlink:href="#path-3"></use>
                </mask>
                <g id="Clip-9"></g>
                <path d="M2.17014413,1.20303915 L6.74517972,1.20303915 C6.63664591,0.804263345 6.38544662,0.466875445 6.03119751,0.250544484 C5.66344306,0.0258647687 5.23037189,-0.0419893238 4.8115427,0.0592597865 L0.0799270463,1.20303915 L2.17014413,1.20303915 Z" id="Fill-8" fill="#9D4747" mask="url(#mask-4)"></path>
            </g>
            <mask id="mask-6" fill="white">
                <use xlink:href="#path-5"></use>
            </mask>
            <g id="Clip-12"></g>
            <path d="M2.92951246,16.7752669 L19.7719786,16.7752669 L19.7719786,2.93074021 L2.92951246,2.93074021 L2.92951246,16.7752669 Z M19.4932776,2.08767972 L3.1667153,2.08767972 C2.58483986,2.08767972 2.11321708,2.55930249 2.11321708,3.14117794 L2.11321708,19.4677402 C2.11321708,20.049452 2.58483986,20.5211566 3.1667153,20.5211566 L19.4932776,20.5211566 C20.0750712,20.5211566 20.546694,20.049452 20.546694,19.4677402 L20.546694,3.14117794 C20.546694,2.55930249 20.0750712,2.08767972 19.4932776,2.08767972 L19.4932776,2.08767972 Z" id="Fill-11" fill="#9D4747" mask="url(#mask-6)"></path>
            <path d="M11.389158,14.8628128 C8.20615445,14.8628128 5.62581637,12.6058662 5.62581637,9.82163843 C5.62581637,7.03757438 8.20615445,4.78046406 11.389158,4.78046406 C14.5721616,4.78046406 17.1524996,7.03757438 17.1524996,9.82163843 C17.1492256,12.6046384 14.5707701,14.859948 11.389158,14.8628128 M11.389158,4.27749253 C7.88841068,4.27749253 5.05040712,6.75960996 5.05040712,9.82163843 C5.05024342,12.8837488 7.88816512,15.3661936 11.3888306,15.3661936 C14.8895779,15.3661936 17.7276633,12.8839943 17.7276633,9.82196584 L17.7276633,9.82163843 C17.7242256,6.76100142 14.8883502,4.28043915 11.389158,4.27749253" id="Fill-13" fill="#9D4747" mask="url(#mask-6)"></path>
            <path d="M9.77792206,11.0485288 C9.60767295,11.0485288 9.46967295,10.910447 9.46967295,10.7401979 C9.46967295,10.5700306 9.60767295,10.4320306 9.77792206,10.4320306 C9.94817117,10.4320306 10.0861712,10.5700306 10.0861712,10.7401979 L10.0861712,10.7403616 C10.0860075,10.9105288 9.94808932,11.048447 9.77792206,11.0485288 M9.77792206,9.92889537 C9.32970854,9.92889537 8.96645587,10.2922299 8.96645587,10.7403616 C8.96645587,11.1885751 9.32970854,11.5518278 9.77792206,11.5518278 C10.2260537,11.5518278 10.5893883,11.1885751 10.5893883,10.7403616 C10.5888972,10.2924754 10.22589,9.92938648 9.77792206,9.92889537" id="Fill-14" fill="#9D4747" mask="url(#mask-6)"></path>
            <path d="M14.9880196,10.3067584 C15.046952,10.4089897 15.0120018,10.5396231 14.9099342,10.5987192 L12.9790801,11.7135235 C12.8769306,11.7724559 12.746379,11.7375875 12.6873648,11.6355199 C12.6872829,11.6354381 12.6872829,11.6352744 12.6872011,11.6351925 L12.1714609,10.741794 C12.1826744,10.7230502 12.1954431,10.7052068 12.2062473,10.68589 C12.7547278,9.69222456 12.3938488,8.4420395 11.4001833,7.89364093 C11.380621,7.88283665 11.360895,7.87235979 11.3410053,7.86221032 C11.1975214,7.7897726 11.0457705,7.73485089 10.8891085,7.6987548 C11.0853861,7.45393986 11.3259448,7.24816762 11.5981797,7.0923242 C12.0062865,6.84513559 12.4810196,6.73070854 12.9568986,6.76467651 C13.3610765,6.80502883 13.671863,6.98027082 13.8322082,7.25807153 C13.9783114,7.54160178 13.9882972,7.87596121 13.8595463,8.16767651 C13.832863,8.23831352 13.8392473,8.31697189 13.8768986,8.38237046 L14.9880196,10.3067584 Z M11.3545107,10.9205555 C11.1177171,11.1088117 10.9719413,11.3888224 10.9535249,11.690769 C10.9460765,11.7969292 10.9157918,11.9003064 10.8647171,11.9936979 C10.5771762,12.5136943 9.67444662,12.5881783 8.89211922,12.1563349 C8.10987367,11.7244096 7.69161744,10.9198189 7.97883096,10.4002317 C8.05593416,10.2641142 8.17248932,10.1547619 8.31310854,10.0864167 C8.60441459,9.94628861 8.81673488,9.68207509 8.89080961,9.36744164 C8.92256762,9.21683665 8.97699822,9.07171566 9.05197331,8.93723523 C9.33051068,8.44539537 9.85263523,8.1420573 10.417895,8.14352526 L10.4247705,8.14352526 C10.4372117,8.14524947 10.4497349,8.14598612 10.462258,8.14574057 C10.688411,8.1511427 10.9103897,8.20704662 11.1121512,8.30935979 C11.8754075,8.69774057 12.1792367,9.63124591 11.7908559,10.3945021 C11.757952,10.4591641 11.7205463,10.5215342 11.6788843,10.5809577 L11.6756103,10.5852139 C11.5862295,10.712737 11.4780231,10.8257726 11.3545107,10.9205555 L11.3545107,10.9205555 Z M14.2681441,7.00646299 C14.0245569,6.58460534 13.5766708,6.32096477 13.007073,6.2638331 C12.4260979,6.21938826 11.8456957,6.3566516 11.3460801,6.65647011 C10.924468,6.89580107 10.5691548,7.23621744 10.3118986,7.64710712 C9.60331851,7.68099324 8.96161032,8.07567651 8.61178114,8.69274769 C8.51249644,8.8714274 8.44071352,9.06393986 8.3987242,9.26398256 C8.35509786,9.42940249 8.23960676,9.56666584 8.08392705,9.63779395 C7.85441815,9.7523847 7.66444306,9.93294698 7.53847509,10.1563989 C7.11244306,10.9281676 7.61033986,12.0227548 8.64910498,12.5961178 C9.03805872,12.8158046 9.47604093,12.9340786 9.92269929,12.9400537 C10.5265107,12.9400537 11.052073,12.6968758 11.306137,12.236794 C11.3919982,12.0803776 11.443073,11.9072637 11.4559235,11.7293206 C11.4634537,11.5700395 11.5381014,11.4213989 11.6612046,11.3201498 C11.7225925,11.2726765 11.7811975,11.2218473 11.8368559,11.1679078 L12.2521655,11.8867192 C12.4503256,12.2292637 12.8883897,12.3468011 13.2314253,12.1492957 L15.1622794,11.0344915 C15.5051512,10.8364132 15.6226068,10.3979399 15.4246103,10.055068 L14.3707847,8.22906441 C14.5105854,7.82537758 14.4732616,7.38125658 14.2681441,7.00646299 L14.2681441,7.00646299 Z" id="Fill-15" fill="#9D4747" mask="url(#mask-6)"></path>
        </g>
    </g>
</svg>