<?xml version="1.0" encoding="UTF-8"?>
<svg width="303px" height="181px" viewBox="0 0 303 181" version="1.1" xmlns="http://www.w3.org/2000/svg" xmlns:xlink="http://www.w3.org/1999/xlink">
    <!-- Generator: Sketch 64 (93537) - https://sketch.com -->
    <title>Group 42 Copy</title>
    <desc>Created with Sketch.</desc>
    <g id="Page-1" stroke="none" stroke-width="1" fill="none" fill-rule="evenodd">
        <g id="Group-42-Copy">
            <polygon id="Fill-1" fill="#FEFEFE" points="302.239462 0.000151879699 15.7943496 13.3701218 -0.000379699248 180.366408 286.459921 166.997197 302.253891 0.000151879699"></polygon>
            <path d="M19.6083526,17.3730632 L4.61554812,175.969642 L282.646526,162.9938 L297.638571,4.39722105 L19.6083526,17.3730632 Z M3.77793158,176.768529 L18.9142624,16.6448 L19.2438414,16.629612 L298.476947,3.59757444 L298.435939,4.03346917 L283.340616,163.722063 L283.011037,163.736492 L3.77793158,176.768529 Z" id="Fill-2" fill="#425250"></path>
            <g id="Group-41" transform="translate(27.338346, 30.764752)" fill="#914040">
                <path d="M8.36750827,65.0488602 C7.00059098,65.1103714 5.79466617,64.9501383 4.75125263,64.5711985 C3.7070797,64.1922586 2.83453083,63.489815 2.13436541,62.4676647 C1.4326812,61.4447549 0.914771429,59.9874692 0.579117293,58.0942887 C0.244222556,56.2026271 0.0908240602,53.7733113 0.118921805,50.8093789 C0.147778947,47.8477248 0.369523308,44.2458977 0.78263609,40.0092135 C1.26485414,35.0678075 1.91413985,30.8713714 2.73201203,27.4191459 C3.54912481,23.9684391 4.47483158,21.1541083 5.50837293,18.9723564 C6.54115489,16.7928827 7.63848571,15.0865143 8.80036541,13.8540105 C9.96148571,12.6230256 11.126403,11.7656647 12.2935985,11.2864842 C13.4600346,10.8073038 14.5892602,10.5437925 15.6752,10.4944316 C17.4028316,10.4169729 18.6505233,10.5741684 19.4122,10.966018 C20.1731173,11.3578677 20.643185,11.8894466 20.8178466,12.5599955 C20.9925083,13.229785 21.0426286,13.9428602 20.9689669,14.6992211 C20.8702451,15.7092211 20.6781173,16.6584692 20.3910647,17.5492436 C20.1032526,18.4415368 19.8070872,19.2214391 19.5025684,19.8866722 C19.2853805,19.6459429 19.0241474,19.4424241 18.720388,19.2806722 C18.4166286,19.1204391 18.0786962,18.9845068 17.7088692,18.8751534 C17.3382827,18.7673188 16.9335233,18.7217549 16.490794,18.7414992 C15.8065759,18.7726346 15.1269143,18.9662812 14.4525684,19.3224391 C13.7767038,19.6808752 13.1160271,20.299785 12.4697789,21.1814466 C11.822012,22.0653865 11.2243654,23.2720707 10.6745609,24.803018 C10.1247564,26.3339654 9.6159594,28.2658752 9.14816992,30.5949504 C8.68038045,32.9263038 8.28701203,35.7315218 7.96730526,39.0090857 C7.6468391,42.2866496 7.47141805,45.006815 7.44028271,47.165785 C7.40990677,49.3262737 7.51622256,51.0166947 7.75695188,52.2355293 C7.9984406,53.4551233 8.39484662,54.3155218 8.94616992,54.8182436 C9.49749323,55.320206 10.1961398,55.552582 11.040591,55.514612 C11.9647789,55.4736045 12.8494782,55.3331158 13.6939293,55.0946647 C14.5368617,54.8554541 15.2575308,54.5463789 15.8559368,54.1681985 C16.0328767,54.8129278 16.168809,55.5730857 16.2637338,56.4479128 C16.3586586,57.3212211 16.3624556,58.2127549 16.273606,59.1194767 C16.1604556,60.2813564 15.7693654,61.3012286 15.1041323,62.1851684 C14.4358617,63.0698677 13.5291398,63.7502887 12.3816887,64.2279504 C11.2334782,64.705612 9.89541805,64.9797549 8.36750827,65.0488602" id="Fill-3"></path>
                <path d="M32.508103,55.2271038 C33.5135466,55.1815398 34.3283812,54.5170662 34.954885,53.2329233 C35.5798699,51.951818 36.128915,49.9181489 36.6012609,47.1349534 C37.0728474,44.3525173 37.5246895,40.7415774 37.958306,36.3036526 C38.3866068,31.9158481 38.6607496,28.3892015 38.7807346,25.722194 C38.9007195,23.0559459 38.777697,21.1399835 38.4109075,19.976585 C38.044118,18.8147053 37.3378774,18.2550286 36.2921857,18.3028707 C35.3269902,18.3461564 34.5197496,19.0220211 33.8719827,20.3312241 C33.222697,21.6411865 32.6463135,23.7644647 32.1397947,26.6987805 C31.6332759,29.6330962 31.1389075,33.5720962 30.6566895,38.5142617 C30.2724338,42.4487053 30.0400579,45.6488105 29.9595617,48.1107805 C29.8790654,50.5750286 30.0324639,52.3892316 30.4197571,53.5503519 C30.8070504,54.712991 31.5026594,55.2726677 32.508103,55.2271038 M31.2900278,64.0171414 C29.3193887,64.1052316 27.6783286,63.7900812 26.3683662,63.0716902 C25.056885,62.3532992 24.0772609,61.0023293 23.429494,59.0240962 C22.7824865,57.0466226 22.4316444,54.274818 22.3792459,50.7117203 C22.326088,47.149382 22.5728925,42.5694496 23.1196594,36.9711639 C23.7886895,30.1130361 24.7364188,24.7091564 25.9628474,20.7633218 C27.1885165,16.8174872 28.7354113,13.9856902 30.6050504,12.270209 C32.4739301,10.5547278 34.6944113,9.63813383 37.2695316,9.52194586 C39.2394113,9.43385564 40.8690805,9.77482556 42.1547421,10.5448556 C43.4396444,11.3148857 44.4093962,12.6795248 45.058682,14.6311789 C45.7087271,16.5858707 46.0565316,19.2688256 46.1043737,22.6815624 C46.1522158,26.0942992 45.9198398,30.4221113 45.4080053,35.6657579 C44.713915,42.7767654 43.7677045,48.3689759 42.5701331,52.4393519 C41.3710429,56.5104872 39.8552835,59.4273368 38.0220955,61.1914195 C36.1873887,62.9570211 33.9441256,63.8971564 31.2900278,64.0171414" id="Fill-5"></path>
                <path d="M58.6650526,29.0611932 C58.7478271,28.2099075 58.8275639,27.3943135 58.905782,26.5946669 L59.0060226,25.5664414 C59.0272857,25.348494 59.0485489,25.1297872 59.0705714,24.9118398 C59.2459925,23.1082684 59.4221729,21.3054564 59.5983534,19.501885 C59.6545489,18.9217045 59.7130226,18.3225391 59.7745338,17.6922383 L59.8846466,16.5622534 C60.5369699,16.5333962 60.8627519,16.5182083 61.5143158,16.4885917 C62.1567669,16.4597346 62.6435414,16.7035015 62.9746391,17.2145767 C63.304218,17.7264113 63.5046992,18.5594714 63.5722857,19.7107195 C63.6398722,20.8627271 63.5851955,22.3450729 63.4074962,24.1615541 C63.1515789,26.7845165 62.8250376,28.7946444 62.4286316,30.192697 C62.0307068,31.5930278 61.587218,32.5536669 61.0966466,33.0776519 C60.603797,33.6016368 60.0357669,33.8780579 59.3933158,33.906915 C58.9110977,33.9289376 58.669609,33.9395692 58.187391,33.9615917 C58.3225639,32.5680955 58.4448271,31.3181256 58.5587368,30.1478925 C58.5944286,29.7856594 58.6301203,29.4241857 58.6650526,29.0611932 M70.5405263,14.7655165 C69.8547895,12.5625015 68.6807594,11.0581331 67.0176767,10.2546895 C65.354594,9.45124586 63.2556165,9.10571955 60.7215038,9.21962932 C60.2294135,9.24165188 59.7980752,9.26139624 59.3948346,9.2796218 L59.3948346,9.2796218 C59.2346015,9.28645639 59.0895564,9.29329098 58.9429925,9.30012556 C58.7607368,9.30771955 58.5807594,9.31607293 58.4045789,9.32442632 C58.1752406,9.3342985 57.9542556,9.34417068 57.7431429,9.35404286 C57.7203609,9.35480226 57.6983383,9.35632105 57.6755564,9.35708045 C57.6193609,9.36011805 57.5639248,9.36239624 57.5077293,9.36467444 C57.0072857,9.38669699 56.470391,9.41099774 55.8514812,9.43909549 C55.6016391,9.45048647 55.3419248,9.46187744 55.0510752,9.47478722 C54.4481128,9.50212556 53.9962707,10.0253511 53.6970677,11.0429451 C52.0233534,28.1894038 50.3503985,45.335103 48.6766842,62.4815617 C50.8880526,62.3820805 52.4698797,62.2848774 53.4198872,62.1922308 C54.3683759,62.0995842 54.9546316,61.9484639 55.1756165,61.7365917 C55.3958421,61.5269977 55.5317744,61.1693211 55.5803759,60.6643211 L57.4264737,41.7537797 C57.5654436,41.7469451 57.6990977,41.7408699 57.8486992,41.7340353 C58.1699248,41.7203662 58.4911504,41.6892308 58.8123759,41.6482233 C59.2178947,42.4676143 59.5694962,43.3287722 59.8557895,44.2423286 C60.3600301,45.8522534 60.7313759,48.0947571 60.9713459,50.9713586 C61.2113158,53.8472008 61.1536015,57.5029451 60.802,61.9355541 C61.5606391,61.9515015 62.2805489,61.9697271 62.9586917,61.988712 C63.6368346,62.0084564 64.2375188,62.007697 64.7607444,61.9841556 C66.4093985,61.9097346 67.4186391,61.7244414 67.7877068,61.4320729 C68.156015,61.1412233 68.3861128,60.6331857 68.4445865,59.9352985 C68.8166917,55.517118 68.698985,51.6889902 68.2554962,48.6460805 C67.8120075,45.6054489 67.2295489,43.1571481 66.5096391,41.3072534 C66.158797,40.4058474 65.7479624,39.5355767 65.2824511,38.6941632 C65.5201429,38.4762158 65.7578346,38.2590278 65.9894511,38.0167797 C67.2158797,36.7326368 68.268406,34.9761481 69.1462707,32.7518699 C70.0241353,30.5298699 70.6293759,27.7041481 70.9642707,24.2731857 C71.3682707,20.1390203 71.2270226,16.9685316 70.5405263,14.7655165" id="Fill-7"></path>
                <path d="M96.3364579,7.69278271 C95.3872098,7.78542932 94.8009541,7.93806842 94.5799692,8.1484218 C94.3589842,8.35877519 94.2238113,8.71797068 94.1744504,9.22145188 C93.4871947,16.2701887 93.1424278,19.7960759 92.4544128,26.8455722 C92.3655632,27.7545722 92.2873451,28.6620534 92.2197586,29.5680158 C92.1514128,30.4732188 92.0807887,31.3943692 92.0101647,32.3261511 C91.9387812,33.2586925 91.8871421,34.2033842 91.8537286,35.1579481 C91.820315,36.112512 91.7846233,37.0944143 91.7466534,38.0998579 C91.7086835,39.1053015 91.6760293,40.1494744 91.6517286,41.2293391 C91.6373,41.8330609 91.629706,42.4496925 91.6251496,43.0746774 C91.5947737,42.6843466 91.5628789,42.2864218 91.528706,41.8755872 C91.4003677,40.3264143 91.2462098,38.7126925 91.0692699,37.0382188 C90.8930895,35.3645045 90.6834955,33.7173692 90.440488,32.0960534 C90.1982398,30.4762564 89.9400444,29.0182113 89.6666609,27.7241962 C87.9337135,19.8788504 87.0672398,15.9565571 85.3342925,8.11197068 C83.1867135,8.20917368 82.1129241,8.25701579 79.9653451,8.3534594 C79.1596233,8.38991053 78.7093,8.91237669 78.6105782,9.92237669 C76.9368639,27.0680759 75.2631496,44.2137752 73.5901947,61.3602338 C75.8418113,61.2584744 77.4335105,61.1612714 78.3637737,61.0693842 C79.292518,60.9782564 79.8681421,60.8271361 80.0898865,60.6152639 C80.310112,60.4056699 80.4460444,60.0479932 80.4954053,59.5429932 C81.2039241,52.2823842 81.5585632,48.6509406 82.267082,41.3888128 C82.3506158,40.5322113 82.4303526,39.6118203 82.5055331,38.6291586 C82.5814729,37.646497 82.6505782,36.6266248 82.7143677,35.5687827 C82.7773977,34.5124594 82.8320744,33.4424669 82.8776383,32.3603241 C82.9232023,31.2804594 82.9611722,30.1732564 82.9915481,29.0417526 C83.0219241,27.9102489 83.0500218,26.7916549 83.0781195,25.6852113 C83.0910293,25.1847677 83.0819165,24.707106 83.0857135,24.2165346 C83.1441872,25.0108654 83.2079767,25.8462038 83.2763226,26.7316624 C83.4001045,28.3332338 83.5504654,29.9841662 83.7251271,31.6821812 C83.8990293,33.381715 84.1010293,35.0060684 84.3303677,36.5514444 C84.5604654,38.0968203 84.7966383,39.4667752 85.0404053,40.661309 C86.8067662,48.655497 87.6899466,52.6529707 89.4555481,60.6456398 C91.555285,60.5514744 92.6047737,60.5043917 94.7045105,60.4102263 C95.5087135,60.3737752 95.9597962,59.8520684 96.058518,58.8428278 C97.7322323,41.6963692 99.4059466,24.5499105 101.078902,7.40345188 C98.8667737,7.50293308 97.285706,7.60013609 96.3364579,7.69278271" id="Fill-9"></path>
                <path d="M108.198035,7.08313759 C107.634561,7.10819774 107.183478,7.63142331 106.844027,8.65053609 C105.170313,25.7977541 103.496598,42.9434534 101.822884,60.089912 C107.44623,59.8362729 110.256764,59.7102128 115.88011,59.4565737 C116.281072,59.4383481 116.576478,59.2879872 116.764809,59.0032128 C116.951621,58.7191977 117.118689,58.0448519 117.262215,56.985491 C117.404982,55.9238519 117.593313,54.2098895 117.82417,51.838288 C114.422065,51.9916865 112.721012,52.0676263 109.318147,52.2210248 C109.879343,46.4723782 110.440538,40.7229722 111.001734,34.9743256 C112.845553,34.8907917 114.696208,34.8080173 117.15438,34.6971451 C117.717854,34.672085 118.097553,34.1648068 118.294238,33.1768293 C118.490922,32.1896113 118.744561,30.1058218 119.054395,26.9300173 C116.111726,27.0621526 113.966426,27.1585962 111.754298,27.2580774 C112.172726,22.9712729 112.591155,18.6844684 113.009583,14.3976639 C116.098817,14.258694 117.643433,14.1888293 120.731907,14.0498594 C121.133629,14.0316338 121.430553,13.8562128 121.6242,13.5205586 C121.817087,13.1856639 121.984914,12.4870173 122.128441,11.4276564 C122.271967,10.3660173 122.454982,8.70141579 122.676726,6.43157368 C116.884794,6.69204737 113.989208,6.82190451 108.198035,7.08313759" id="Fill-11"></path>
                <path d="M132.853274,25.2345842 C132.959589,24.1448474 133.060589,23.107509 133.161589,22.0770053 C133.271702,20.9470203 133.381815,19.8177947 133.491928,18.6885692 C133.652161,17.0520654 133.823785,15.2940579 134.025026,13.2262158 C134.677349,13.1958398 135.003131,13.1814113 135.654695,13.1525541 C136.297905,13.123697 136.78392,13.3659451 137.115018,13.8777797 C137.444597,14.3903737 137.645838,15.221915 137.712665,16.3739226 C137.780251,17.5259301 137.725574,19.0090353 137.547875,20.8247571 C137.291958,23.4469602 136.965417,25.4586068 136.569011,26.8559 C136.171086,28.2562308 135.727597,29.2168699 135.237026,29.7408549 C134.744176,30.2655992 134.176146,30.5412609 133.533695,30.570118 C133.050717,30.5921406 132.809988,30.6027722 132.327011,30.6247947 C132.427251,29.5973286 132.519898,28.6518774 132.607229,27.753509 C132.689244,26.9143737 132.771259,26.0744789 132.853274,25.2345842 M144.681665,11.4287195 C143.995928,9.22570451 142.821138,7.72133609 141.158056,6.91789248 C139.494973,6.11444887 137.395995,5.76892256 134.861883,5.88359173 C133.624823,5.93902782 132.755311,5.97851654 131.815176,6.01952406 C131.000341,6.05673459 130.259168,6.09014812 129.191454,6.13874962 C128.587732,6.16532857 128.13589,6.68855414 127.837447,7.70614812 C126.163732,24.8518474 124.490018,41.998306 122.817063,59.1440053 C125.028432,59.0445241 126.610259,58.9480805 127.560266,58.8554338 C128.508755,58.7627872 129.095011,58.6116669 129.315995,58.3997947 C129.536221,58.1894414 129.672153,57.8332835 129.720755,57.3282835 C130.336627,51.0245165 130.95174,44.7199902 131.566853,38.4162233 C131.705823,38.4109075 131.839477,38.4048323 131.989078,38.3979977 C132.310304,38.3828098 132.631529,38.3516744 132.952755,38.3114263 C133.358274,39.1308173 133.709875,39.9927346 133.996168,40.906291 C134.500409,42.5154564 134.871755,44.7579602 135.111725,47.6338023 C135.351695,50.5096444 135.29398,54.1661481 134.942379,58.5995165 C135.701777,58.6139451 136.420928,58.6321707 137.099071,58.651915 C137.777214,58.6716594 138.378657,58.6701406 138.901883,58.6465992 C140.550537,58.5721782 141.559018,58.3876444 141.928845,58.0952759 C142.296394,57.8051857 142.527251,57.2971481 142.585725,56.5985015 C142.95783,52.1803211 142.840123,48.3514338 142.396635,45.3100429 C141.953146,42.2694113 141.369928,39.8211105 140.650018,37.9704564 C140.299176,37.0690504 139.888341,36.1987797 139.42283,35.3566068 C139.660522,35.1401782 139.898214,34.9229902 140.12983,34.6799827 C141.356259,33.3950805 142.408785,31.6401105 143.28665,29.4158323 C144.164514,27.1923135 144.770514,24.3665917 145.105409,20.9371481 C145.50865,16.8022233 145.367402,13.6317346 144.681665,11.4287195" id="Fill-13"></path>
                <path d="M168.47005,57.8427 C167.102374,57.9042113 165.897208,57.7447376 164.853035,57.3657977 C163.808862,56.9868579 162.936314,56.2836549 162.236148,55.2622639 C161.533705,54.2385947 161.016554,52.781309 160.6809,50.888888 C160.345246,48.9964669 160.191847,46.5671511 160.220705,43.6039782 C160.248802,40.6415647 160.470547,37.0397376 160.883659,32.8038128 C161.366637,27.8624068 162.015923,23.6652113 162.833035,20.2137451 C163.650908,16.7622789 164.575855,13.9479481 165.610156,11.7669556 C166.642938,9.58748195 167.740268,7.88035414 168.902148,6.64860977 C170.063268,5.41762481 171.228186,4.56026391 172.396141,4.08032406 C173.562577,3.60190301 174.691043,3.33763233 175.777742,3.28827143 C177.506133,3.21081278 178.753065,3.36800827 179.514742,3.75985789 C180.275659,4.15246692 180.745727,4.68404586 180.921148,5.35459474 C181.09505,6.02362481 181.14593,6.7367 181.072268,7.4930609 C180.973547,8.5030609 180.780659,9.45230902 180.493607,10.3438429 C180.205795,11.2361361 179.910389,12.0152789 179.60587,12.6812714 C179.387923,12.4397827 179.127449,12.2362639 178.82293,12.0752714 C178.519171,11.9142789 178.181998,11.7783466 177.811411,11.6697526 C177.440825,11.5611586 177.036065,11.5155947 176.593336,11.5353391 C175.909118,11.5664744 175.229456,11.7601211 174.555111,12.1170383 C173.879246,12.474715 173.21781,13.0936248 172.571562,13.9752865 C171.924554,14.8599857 171.326148,16.0659105 170.777103,17.5968579 C170.226539,19.1278053 169.717742,21.059715 169.249953,23.3895496 C168.782163,25.7201436 168.389554,28.5253617 168.069088,31.8029256 C167.749381,35.0812489 167.573201,37.8006549 167.542825,39.9596248 C167.511689,42.1208729 167.618005,43.811294 167.859494,45.0293692 C168.100983,46.2489632 168.496629,47.1093617 169.047953,47.6128429 C169.600035,48.1148053 170.298682,48.3471812 171.142374,48.3084519 C172.067321,48.2674444 172.95202,48.127715 173.796471,47.8892639 C174.639404,47.6500534 175.360073,47.3409782 175.959238,46.9627977 C176.136178,47.6075271 176.272111,48.367685 176.367035,49.2417526 C176.46196,50.1150609 176.464998,51.0065947 176.376908,51.9140759 C176.263757,53.0751962 175.872667,54.0958278 175.206674,54.9790083 C174.539163,55.8644669 173.631682,56.544888 172.484231,57.0225496 C171.33602,57.5002113 169.99796,57.7735947 168.47005,57.8427" id="Fill-15"></path>
                <path d="M192.890635,36.4097406 C193.506508,34.0472519 194.12162,31.6840038 194.736733,29.321515 C195.111876,27.9485226 195.466515,26.4646579 195.80141,24.8684023 C196.137064,23.2713872 196.480312,21.6121015 196.828876,19.8890263 C197.17744,18.1674699 197.487274,16.521094 197.761417,14.9506579 C197.729523,16.5104624 197.709778,18.1439286 197.703703,19.8487782 C197.696868,21.555906 197.715853,23.2000038 197.762177,24.780312 C197.809259,26.3606203 197.865455,27.8247406 197.933801,29.1779887 L198.407665,36.1614173 C196.539545,36.2457105 194.850643,36.3216504 192.890635,36.4097406 M201.7475,3.02430451 C201.354891,2.94077068 200.869635,2.88685338 200.291733,2.86331203 C199.713831,2.83977068 199.142763,2.83977068 198.580049,2.86483083 C196.930635,2.93925188 195.974553,3.50880075 195.711041,4.57575564 C190.681545,21.847515 185.652808,39.1200338 180.623312,56.3917932 C181.416883,56.4571015 182.215011,56.4973496 183.013898,56.5110188 C183.812786,56.524688 184.433214,56.5216504 184.876703,56.501906 C186.24438,56.4403947 187.091868,56.2642143 187.420688,55.9741241 C187.748748,55.6832744 187.978086,55.2838308 188.108703,54.7750338 C189.03441,51.2187707 189.960876,47.6617481 190.886583,44.1062444 C193.872538,43.9718308 196.112004,43.8708308 198.921778,43.7447707 L199.732056,55.6832744 C200.61068,55.6931466 201.373117,55.6961842 202.013289,55.693906 C202.651944,55.690109 203.194154,55.6771992 203.636883,55.6574549 C205.00456,55.5959436 205.882425,55.4303947 206.268199,55.1623271 C206.653974,54.8950188 206.832432,54.5100038 206.801297,54.0088008 C205.117711,37.0142218 203.432605,20.0188835 201.7475,3.02430451" id="Fill-17"></path>
                <path d="M217.929219,2.14408571 C217.365745,2.16914586 216.914662,2.69313083 216.574452,3.71224361 C214.901497,20.8587023 213.227783,38.0051609 211.553309,55.1508602 C213.822392,55.0483414 214.956933,54.9982211 217.224497,54.8957023 C217.828219,54.8683639 218.238294,54.3481759 218.45852,53.3336195 L220.732159,30.0360331 C222.575978,29.9524992 224.427392,29.8697248 226.885565,29.7580932 C227.44752,29.7330331 227.827978,29.2257549 228.024662,28.2385368 C228.220587,27.2520782 228.474226,25.1675293 228.784061,21.9909654 C225.842151,22.1238602 223.69761,22.2203038 221.486241,22.3190256 C221.916061,17.9061609 222.34664,13.4932962 222.777978,9.08119098 C225.865692,8.94146165 227.40955,8.87159699 230.498023,8.73338647 C230.899745,8.7144015 231.194392,8.57770977 231.379685,8.31723609 C231.564219,8.0582812 231.727489,7.42266466 231.866459,6.41266466 C232.003911,5.40342406 232.184647,3.76312331 232.406392,1.4932812 C226.615219,1.75299549 223.720392,1.88361203 217.929219,2.14408571" id="Fill-19"></path>
                <path d="M238.619183,1.21336692 C238.055709,1.23842707 237.604626,1.76165263 237.265175,2.78076541 C235.59222,19.9272241 233.918506,37.0736827 232.244792,54.219382 C237.866619,53.9665023 240.677912,53.8396827 246.29898,53.586803 C246.700702,53.5685774 246.996108,53.4182165 247.183679,53.1334421 C247.370491,52.8494271 247.538318,52.1750812 247.681844,51.1157203 C247.824611,50.0540812 248.012183,48.3401188 248.244559,45.9685173 C244.841694,46.1219158 243.140641,46.1978556 239.739295,46.3504947 C240.299732,40.6018481 240.860927,34.8532015 241.422123,29.1045549 C243.265942,29.0210211 245.116596,28.9382466 247.574769,28.8273744 C248.137483,28.8023143 248.517183,28.2950361 248.713867,27.3070586 C248.910551,26.3198406 249.16419,24.2360511 249.474025,21.0594872 C246.532115,21.192382 244.386814,21.2888256 242.175446,21.3875474 C242.593115,17.1015023 243.011544,12.8139383 243.430732,8.52789323 C246.518446,8.38816391 248.063062,8.31905865 251.151536,8.18008872 C251.553258,8.16186316 251.850183,7.98644211 252.043829,7.65078797 C252.236717,7.31589323 252.404544,6.61724662 252.54807,5.55788571 C252.690837,4.49624662 252.873852,2.83164511 253.095596,0.561803008 C247.305183,0.822276692 244.410356,0.952133835 238.619183,1.21336692" id="Fill-21"></path>
                <path d="M6.35851955,121.782003 C7.80365489,106.978289 9.24879023,92.1745744 10.6931662,77.3708602 C10.8040383,76.2340406 10.9726248,75.434394 11.199685,74.9704015 C11.4259857,74.5079278 11.9818654,74.2117624 12.8658053,74.0811459 C13.7505045,73.9505293 15.2138654,73.8388977 17.2566474,73.7470105 C15.7477226,89.2098827 14.2380383,104.673514 12.7291135,120.137146 C12.6850684,120.592785 12.5620459,120.914011 12.3623241,121.103101 C12.1618429,121.294469 11.6302639,121.431161 10.7698654,121.514695 C9.90870752,121.598988 8.43775263,121.688597 6.35851955,121.782003" id="Fill-23"></path>
                <path d="M39.109782,72.8319353 C38.2478647,72.9154692 37.7170451,73.0536797 37.5173233,73.2427699 C37.3160827,73.4326195 37.1945789,73.7561233 37.1505338,74.2102436 C36.5301053,80.5679278 36.2195113,83.7467699 35.5990827,90.1052135 C35.5193459,90.9238451 35.4479624,91.7417173 35.3864511,92.5603489 C35.3249398,93.3774617 35.2619098,94.2067248 35.1981203,95.0473789 C35.1343308,95.8887925 35.0880075,96.7400782 35.058391,97.6004767 C35.028015,98.462394 34.9961203,99.3470932 34.9627068,100.254574 C34.9285338,101.162056 34.9004361,102.10295 34.8776541,103.076499 C34.8655038,103.623266 34.8586692,104.182183 34.8548722,104.748695 C34.8267744,104.394815 34.7979173,104.032582 34.7660226,103.658958 C34.6483158,102.261665 34.5085865,100.806657 34.347594,99.2977323 C34.1866015,97.7880481 33.9952331,96.3019053 33.7750075,94.8400632 C33.554782,93.3797398 33.3193684,92.0644617 33.0702857,90.8980256 C31.4945338,83.8234692 30.7062782,80.2854316 29.1305263,73.212394 C27.1826692,73.2997248 26.2083609,73.3437699 24.2605038,73.4318602 C23.5307218,73.4645143 23.1221654,73.9361008 23.0333158,74.8458602 C21.5236316,90.3094917 20.0147068,105.772364 18.505782,121.234477 C20.5478045,121.142589 21.9914211,121.055259 22.8343534,120.972484 C23.6772857,120.88895 24.1997519,120.753018 24.4002331,120.562409 C24.5999549,120.373319 24.722218,120.050574 24.7670226,119.594935 C25.4064361,113.046642 25.7253835,109.772116 26.364797,103.223063 C26.4399774,102.449995 26.5121203,101.619973 26.5804662,100.733755 C26.6480526,99.8475368 26.7110827,98.9271459 26.768797,97.9733414 C26.8249925,97.021815 26.873594,96.0566195 26.9146015,95.0807925 C26.9548496,94.1057248 26.9890226,93.1078752 27.0156015,92.088003 C27.0421805,91.0673714 27.0687594,90.0588902 27.0930602,89.0610406 C27.1044511,88.6107173 27.0960977,88.1816571 27.0991353,87.7404466 C27.1530526,88.4550406 27.2115263,89.2068451 27.273797,90.0042135 C27.386188,91.4493489 27.5236391,92.9385293 27.6823534,94.4687173 C27.8418271,96.0011835 28.0256015,97.4653038 28.2344361,98.8588 C28.4440301,100.253056 28.6589398,101.488597 28.8806842,102.565424 C30.486812,109.774394 31.2902556,113.380018 32.8963835,120.587469 C34.8009549,120.501657 35.7524812,120.459131 37.6570526,120.373319 C38.3860752,120.340665 38.795391,119.869078 38.8842406,118.959319 C40.3931654,103.496447 41.9028496,88.0335744 43.4125338,72.5691835 C41.4054436,72.6595519 39.9701805,72.7484015 39.109782,72.8319353" id="Fill-25"></path>
                <path d="M59.6083774,71.8403887 C58.8785955,71.8738023 58.4692797,72.3453887 58.3811895,73.2543887 C58.1541293,75.5743511 58.0417383,76.7331932 57.8146782,79.0523962 C60.3822045,78.9369677 62.5039639,78.8420429 64.4905504,78.7524338 C63.1699564,92.2826368 61.8501218,105.81284 60.5287684,119.343802 C62.5350992,119.253434 63.9703624,119.165344 64.8315203,119.08181 C65.6919188,118.998276 66.2234977,118.861584 66.4239789,118.670216 C66.6244602,118.481126 66.7467233,118.159141 66.7907684,117.704261 C68.0673173,104.628178 69.3431068,91.5520955 70.6196556,78.4760128 C72.3579188,78.3985541 74.2252797,78.3135015 76.4207008,78.2155391 C76.8216632,78.1973135 77.1132722,78.0940353 77.2955278,77.9041857 C77.4762647,77.7158549 77.5947308,77.3475466 77.6478887,76.8015391 C77.8741895,74.4823361 77.9873398,73.3227346 78.2136406,71.0027722 C70.7715353,71.3384263 67.0504827,71.5062534 59.6083774,71.8403887" id="Fill-27"></path>
                <path d="M96.2103977,70.2615233 C95.366706,70.3442977 94.854112,70.4817489 94.6718564,70.6700797 C94.4903602,70.8599293 94.3772098,71.1826737 94.3324053,71.6375534 C93.7666534,77.4355609 93.2009015,83.2343278 92.6351496,89.0330947 C90.7639917,89.1166286 89.201909,89.1872526 87.3816308,89.2692677 C87.9921872,83.0156211 88.6019842,76.7619744 89.2125406,70.5083278 C87.1333075,70.6017338 85.6608338,70.6913429 84.8011947,70.7748767 C83.9392774,70.8591699 83.4259241,70.9966211 83.2626534,71.1841925 C83.0986233,71.3725233 82.9953451,71.6952677 82.9505406,72.1486286 C81.4416158,87.6122602 79.9319316,103.075132 78.4230068,118.538005 C80.5022398,118.444598 81.9724353,118.354989 82.8343526,118.271456 C83.6955105,118.187162 84.2088639,118.052749 84.372894,117.862899 C84.5361647,117.675328 84.6409617,117.354102 84.6850068,116.898463 C85.3509992,110.076786 86.0169917,103.253591 86.6829842,96.4319143 C88.5047812,96.3498992 90.0683827,96.2800346 91.9357436,96.194982 C91.225706,103.471538 90.514909,110.748854 89.8048714,118.025411 C91.8848639,117.932005 93.3550594,117.843155 94.2169767,117.759621 C95.0773752,117.675328 95.591488,117.540155 95.7547586,117.350305 C95.9180293,117.163493 96.0228263,116.841508 96.0676308,116.385869 C97.5765556,100.922997 99.0854805,85.4593654 100.594405,69.9957338 C98.5159316,70.0891398 97.0533301,70.1787489 96.2103977,70.2615233" id="Fill-29"></path>
                <path d="M107.654077,69.678685 C107.142243,69.7007075 106.733686,70.1730534 106.42613,71.092685 C104.917205,86.5563165 103.407521,102.018429 101.898596,117.481302 C106.998717,117.251963 109.548777,117.137294 114.648897,116.907956 C115.013408,116.892008 115.280717,116.755317 115.452341,116.49864 C115.621686,116.241963 115.772047,115.634444 115.901905,114.679121 C116.031002,113.722279 116.201108,112.175384 116.409183,110.036918 C113.322987,110.175888 111.779889,110.244993 108.693694,110.384723 C109.199453,105.19955 109.705213,100.014377 110.211732,94.8299632 C111.883927,94.7547827 113.562957,94.6796023 115.793311,94.5793617 C116.303626,94.5565797 116.648393,94.0986624 116.826092,93.207888 C117.003792,92.3178729 117.232371,90.4383617 117.511829,87.5731511 C114.843303,87.6938955 112.896965,87.7812263 110.890634,87.8715947 C111.268055,84.005497 111.645476,80.1393992 112.022138,76.2740609 C114.824318,76.1480008 116.225408,76.0849707 119.027589,75.9589105 C119.3921,75.9422038 119.661686,75.7834895 119.836348,75.4804895 C120.01101,75.1782489 120.163649,74.5479481 120.293506,73.5926248 C120.422604,72.6365421 120.587393,71.1344519 120.787115,69.0871135 C115.533596,69.3232865 112.907596,69.4417526 107.654077,69.678685" id="Fill-31"></path>
                <path d="M151.834895,67.7579383 C150.972977,67.8414722 150.442158,67.9804421 150.242436,68.1695323 C150.041195,68.359382 149.919692,68.6828857 149.875647,69.137006 C149.255218,75.4946902 148.944624,78.6735323 148.324195,85.0312165 C148.243699,85.8506075 148.172316,86.6684797 148.111564,87.4863519 C148.050053,88.3042241 147.987023,89.1334872 147.923233,89.9741414 C147.859444,90.8147955 147.81312,91.6668406 147.782744,92.5272391 C147.753128,93.3891564 147.721233,94.2738556 147.68782,95.1805774 C147.653647,96.088818 147.625549,97.0297128 147.602767,98.0032617 C147.590617,98.5492692 147.583782,99.1081865 147.579985,99.6754571 C147.551887,99.320818 147.52303,98.9593444 147.491135,98.5857203 C147.373429,97.1884271 147.233699,95.7334195 147.072707,94.2237353 C146.911714,92.7148105 146.720346,91.2279083 146.50012,89.7660662 C146.279895,88.3065023 146.043722,86.9912241 145.794639,85.824788 C144.218887,78.7502316 143.430632,75.212194 141.85412,68.1391564 C139.906263,68.2264872 138.932714,68.2705323 136.984098,68.3578632 C136.254316,68.3912767 135.845759,68.8628632 135.75691,69.7726226 C134.247226,85.2362541 132.738301,100.698367 131.229376,116.161239 C133.272158,116.069352 134.715015,115.981262 135.558707,115.898487 C136.401639,115.815713 136.923346,115.679021 137.124586,115.489171 C137.324308,115.299322 137.446571,114.977337 137.491376,114.521698 C138.130789,107.973405 138.450496,104.698878 139.08915,98.1490662 C139.164331,97.3767579 139.236474,96.5467353 139.30482,95.6605173 C139.372406,94.7742992 139.435436,93.8539083 139.492391,92.9001038 C139.549346,91.947818 139.597947,90.983382 139.638955,90.0075549 C139.679203,89.0324872 139.713376,88.0346376 139.739955,87.0147654 C139.766534,85.9941338 139.793113,84.9856526 139.817414,83.987803 C139.828805,83.5374797 139.820451,83.1084195 139.823489,82.667209 C139.877406,83.381803 139.93512,84.1336075 139.99815,84.9309759 C140.111301,86.3753519 140.247992,87.8652917 140.406707,89.3954797 C140.56618,90.9279459 140.749955,92.3920662 140.958789,93.7855624 C141.168383,95.179818 141.383293,96.4146 141.605038,97.4921865 C143.211925,104.701156 144.014609,108.306021 145.621496,115.514232 C147.526068,115.42766 148.478353,115.385134 150.382165,115.299322 C151.111188,115.267427 151.521263,114.795841 151.610113,113.886081 C153.119038,98.423209 154.628722,82.9595774 156.137647,67.4959459 C154.130556,67.5863143 152.695293,67.6744045 151.834895,67.7579383" id="Fill-33"></path>
                <path d="M162.594736,67.2054 C162.083661,67.228182 161.675105,67.6997684 161.367548,68.6194 C159.857864,84.0830316 158.348939,99.5459038 156.839255,115.008776 C161.940135,114.779438 164.490195,114.664768 169.589556,114.434671 C169.954067,114.418723 170.222135,114.282791 170.392999,114.025355 C170.562345,113.769438 170.712706,113.161919 170.842563,112.205836 C170.971661,111.249753 171.141766,109.702859 171.349841,107.564392 C168.263646,107.702603 166.720548,107.772468 163.634353,107.911438 C164.140112,102.726265 164.646631,97.5418511 165.15239,92.3574376 C166.825345,92.2822571 168.503616,92.2070767 170.733969,92.1060767 C171.244285,92.0832947 171.589052,91.6253774 171.766751,90.734603 C171.94445,89.844588 172.173029,87.9658361 172.453247,85.1006256 C169.783962,85.2213699 167.837623,85.3087008 165.831292,85.3990692 C166.208714,81.532212 166.586135,77.6668737 166.963556,73.8007759 L173.968247,73.4856256 C174.332759,73.4689188 174.602345,73.3102045 174.777007,73.0079639 C174.951668,72.7057233 175.104308,72.0754226 175.234165,71.1200992 C175.363262,70.1640165 175.528052,68.6611669 175.727774,66.614588 C170.475014,66.8507609 167.848255,66.9684677 162.594736,67.2054" id="Fill-35"></path>
                <path d="M209.872532,65.0777932 C209.325006,65.102094 208.944547,65.2790338 208.731916,65.6048158 C208.517765,65.9313571 208.338547,66.4614173 208.19578,67.1911992 C206.487893,75.3099286 205.634329,79.3689135 203.926442,87.4884023 C203.318164,90.3680414 202.737983,93.4284173 202.185901,96.6680113 C201.633059,99.9076053 201.198683,102.78041 200.882014,105.284147 C200.707352,105.2925 200.619262,105.296297 200.4446,105.30465 C200.517502,103.806357 200.58357,102.116695 200.639765,100.234906 C200.695961,98.3546353 200.729374,96.3361541 200.740006,94.1855376 C200.749878,92.0349211 200.699758,89.8516504 200.588126,87.6380038 L199.768735,67.5701391 C199.127044,67.5989962 198.615209,67.6225376 198.126916,67.6445602 C197.738863,67.6612669 197.422194,67.6764549 197.12375,67.6893647 C196.813156,67.7037932 196.48054,67.7189812 196.109953,67.735688 C195.907194,67.7448008 195.691525,67.7539135 195.44548,67.7653045 C194.861502,67.7911241 194.47269,67.9673045 194.278284,68.2923271 C194.082359,68.618109 193.912254,69.1474098 193.768728,69.8779511 C192.119314,77.1788083 191.294608,80.8292368 189.644435,88.1308534 C189.013374,90.8760789 188.433194,93.7549586 187.903134,96.7667331 C187.373074,99.7792669 186.919713,102.834327 186.545329,105.929635 C186.370668,105.937989 186.283337,105.941786 186.107916,105.94938 C186.180818,104.451846 186.246886,102.762184 186.303081,100.880395 C186.359277,99.0001241 186.39269,96.9816429 186.403322,94.8310263 C186.413194,92.6804098 186.38054,90.4963797 186.306878,88.2812143 C186.136773,80.9082143 185.966668,73.5344549 185.796562,66.1614549 C183.738592,66.2541015 182.709608,66.2996654 180.652397,66.392312 C179.959066,66.4234474 179.517096,66.5806429 179.326487,66.8608609 C179.135878,67.1403195 179.056901,67.6650639 179.091074,68.4328158 C179.195111,71.4620564 179.286998,74.2429737 179.366735,76.7740489 C179.446472,79.3074023 179.536841,82.0989511 179.6386,85.1509737 C179.740359,88.2022368 179.857307,91.2884323 179.988683,94.4065226 C180.120059,97.5253722 180.252194,100.452094 180.385089,103.185169 C180.517983,105.918244 180.641006,108.212387 180.748841,110.061523 C180.817186,111.234793 181.055638,112.221252 181.467991,113.017861 C181.881104,113.813711 182.487863,114.194169 183.291307,114.158477 C184.604307,114.099244 185.646961,114.02862 186.416991,113.948883 C187.186262,113.869147 188.107412,113.737011 189.178923,113.553237 C190.209427,109.024944 190.725059,106.760417 191.755562,102.231365 C192.142096,100.493861 192.55369,98.5163872 192.988066,96.3004624 C193.421683,94.0845376 193.847705,91.8587406 194.266134,89.6200338 C194.594953,87.8605075 194.895675,86.2103346 195.170577,84.6626805 C195.132608,86.192109 195.105269,87.8187406 195.090081,89.5501692 C195.070337,91.7926729 195.072615,94.0116353 195.094638,96.2055376 C195.11666,98.4009586 195.170577,100.357169 195.257149,102.074169 C195.451555,104.998613 195.547998,106.461214 195.742405,109.387177 C195.828217,110.741944 196.08945,111.78232 196.526863,112.509823 C196.963517,113.236568 197.656848,113.579816 198.605337,113.537289 C199.408021,113.501598 200.047435,113.46059 200.523577,113.415786 C200.99972,113.3725 201.497886,113.304914 202.015036,113.213786 C202.531427,113.122658 203.19666,113.012545 204.007698,112.885726 C207.732547,96.8700113 211.455878,80.854297 215.179968,64.8393421 C213.05669,64.9350263 211.995811,64.982109 209.872532,65.0777932" id="Fill-37"></path>
                <path d="M221.396253,112.782675 C218.951749,112.892788 217.192223,112.507773 216.116155,111.62763 C215.039328,110.749006 214.559388,109.717743 214.674057,108.5346 C214.749997,107.762292 214.947441,106.857848 215.265629,105.825066 C215.585335,104.792284 216.023508,103.833164 216.581666,102.947705 C217.102614,103.559021 217.800501,104.058705 218.668493,104.449036 C219.537245,104.840126 220.465989,105.014029 221.45017,104.969983 C222.946185,104.902397 224.032884,104.378412 224.709508,103.39651 C225.386132,102.416126 225.802283,101.129705 225.957959,99.5372466 C226.072629,98.3548632 226.00808,97.2484195 225.764313,96.2186752 C225.519786,95.1881714 224.99808,93.9199759 224.200711,92.4171263 C222.534591,89.1767729 221.700771,87.5569759 220.034651,84.3181414 C218.998072,82.2814346 218.355621,80.4983669 218.10502,78.9704571 C217.855177,77.4440662 217.802779,75.9283068 217.949343,74.4262165 C218.250824,71.3339459 219.31702,68.7846451 221.14717,66.7775549 C222.975802,64.7719835 225.497005,63.6951564 228.707741,63.5508707 C231.478786,63.4263293 233.378802,63.6807278 234.407027,64.3133068 C235.433734,64.9466451 235.890892,65.8548857 235.775463,67.0357504 C235.713192,67.6736451 235.537012,68.3722917 235.244644,69.1324496 C234.952275,69.8926075 234.514102,70.6489684 233.933922,71.3984947 C233.667373,71.1380211 233.094786,70.8699534 232.213884,70.5920135 C231.332982,70.3155925 230.363989,70.2009233 229.306147,70.248006 C227.956696,70.3087579 226.869997,70.6413744 226.049847,71.2435774 C225.228177,71.8472992 224.759629,72.7403519 224.6442,73.9219759 C224.542441,74.9676677 224.603952,75.9275474 224.827215,76.7993368 C225.050478,77.6726451 225.448403,78.7084647 226.021749,79.9052767 C227.794944,83.1668932 228.681922,84.7973218 230.455117,88.0589383 C231.564598,90.0933669 232.255651,91.9417429 232.529035,93.6040662 C232.803177,95.2671489 232.842666,97.0760361 232.652057,99.033006 C232.430313,101.306645 231.938223,103.467893 231.175027,105.51751 C230.411832,107.567126 229.257546,109.259826 227.709892,110.597126 C226.163756,111.933668 224.058704,112.66269 221.396253,112.782675" id="Fill-39"></path>
            </g>
        </g>
    </g>
</svg>