<?xml version="1.0" encoding="UTF-8"?>
<svg width="33px" height="25px" viewBox="0 0 33 25" version="1.1" xmlns="http://www.w3.org/2000/svg" xmlns:xlink="http://www.w3.org/1999/xlink">
    <!-- Generator: Sketch 64 (93537) - https://sketch.com -->
    <title>“</title>
    <desc>Created with Sketch.</desc>
    <g id="Page-1" stroke="none" stroke-width="1" fill="none" fill-rule="evenodd" opacity="0.381068638">
        <path d="M25.8713042,24.82065 C27.8630376,24.82065 29.4991042,24.1448833 30.7795042,22.79335 C32.0599042,21.4418167 32.7001042,19.80575 32.7001042,17.88515 C32.7001042,16.4624833 32.5044876,15.21765 32.1132542,14.15065 C31.7220209,13.08365 30.9217709,12.1944833 29.7125042,11.48315 C29.8547709,10.5584167 29.9970376,9.75816667 30.1393042,9.0824 C30.2815709,8.40663333 30.5305376,7.64195 30.8862042,6.78835 C31.2418709,5.93475 31.8109376,4.83218333 32.5934042,3.48065 C32.3088709,2.20025 31.7575876,1.36443333 30.9395542,0.9732 C30.1215209,0.581966667 29.1790042,0.38635 28.1120042,0.38635 C27.5429376,0.38635 26.7249042,0.830933333 25.6579042,1.7201 C24.5909042,2.60926667 23.4883376,3.81853333 22.3502042,5.3479 C21.2120709,6.87726667 20.2517709,8.63781667 19.4693042,10.62955 C18.6868376,12.6212833 18.2956042,14.7552833 18.2956042,17.03155 C18.2956042,19.5212167 18.9535876,21.4418167 20.2695542,22.79335 C21.5855209,24.1448833 23.4527709,24.82065 25.8713042,24.82065 Z M8.37250423,24.82065 C10.3642376,24.82065 12.0003042,24.1448833 13.2807042,22.79335 C14.5611042,21.4418167 15.2013042,19.80575 15.2013042,17.88515 C15.2013042,16.4624833 15.0056876,15.21765 14.6144542,14.15065 C14.2232209,13.08365 13.4229709,12.1944833 12.2137042,11.48315 C12.3559709,10.5584167 12.4982376,9.75816667 12.6405042,9.0824 C12.7827709,8.40663333 13.0317376,7.64195 13.3874042,6.78835 C13.7430709,5.93475 14.3121376,4.83218333 15.0946042,3.48065 C14.8100709,2.20025 14.2587876,1.36443333 13.4407542,0.9732 C12.6227209,0.581966667 11.6802042,0.38635 10.6132042,0.38635 C10.0441376,0.38635 9.22610423,0.830933333 8.15910423,1.7201 C7.09210423,2.60926667 5.98953757,3.81853333 4.85140423,5.3479 C3.7132709,6.87726667 2.7529709,8.63781667 1.97050423,10.62955 C1.18803757,12.6212833 0.796804232,14.7552833 0.796804232,17.03155 C0.796804232,19.5212167 1.45478757,21.4418167 2.77075423,22.79335 C4.0867209,24.1448833 5.9539709,24.82065 8.37250423,24.82065 Z" id="“" fill="#F4F0E9" fill-rule="nonzero"></path>
    </g>
</svg>