<?xml version="1.0" encoding="UTF-8"?>
<svg width="42px" height="42px" viewBox="0 0 42 42" version="1.1" xmlns="http://www.w3.org/2000/svg" xmlns:xlink="http://www.w3.org/1999/xlink">
    <title>Group 32</title>
    <defs>
        <polygon id="path-1" points="0.000350818452 0.681991071 21.064894 0.681991071 21.064894 21.750744 0.000350818452 21.750744"></polygon>
    </defs>
    <g id="Page-1" stroke="none" stroke-width="1" fill="none" fill-rule="evenodd">
        <g id="Group-32">
            <g id="Group-7-Copy-16" fill="#42524A">
                <g id="Group-4-Copy">
                    <circle id="Oval-Copy-6" cx="20.9965069" cy="20.9965069" r="20.9965069"></circle>
                </g>
            </g>
            <g id="Group-8" transform="translate(10.420000, 10.407715)">
                <g id="Group-3" transform="translate(0.000000, 0.019997)">
                    <mask id="mask-2" fill="white">
                        <use xlink:href="#path-1"></use>
                    </mask>
                    <g id="Clip-2"></g>
                    <path d="M21.0115696,6.87611183 C20.962455,5.75629933 20.7814327,4.98730528 20.521827,4.32004859 C20.2545033,3.61209695 19.8426425,2.97851882 19.3030837,2.45158951 C18.7761544,1.91624055 18.1383664,1.5008715 17.4388344,1.23705603 C16.7680696,0.978152009 16.0025837,0.796428051 14.8834728,0.747313467 C13.7552407,0.693989063 13.3967042,0.681359598 10.5361306,0.681359598 C7.67625856,0.681359598 7.3177221,0.693989063 6.19440141,0.743103646 C5.07458891,0.792919866 4.30489323,0.973942188 3.63833817,1.23354784 C2.93038653,1.5008715 2.29680841,1.91203073 1.76987909,2.45158951 C1.23453013,2.97851882 0.819161086,3.61630677 0.556047247,4.31583876 C0.296441592,4.98730528 0.115419271,5.75208951 0.0656030506,6.87190201 C0.0122786458,8.00013415 0.000350818452,8.35796897 0.000350818452,11.217841 C0.000350818452,14.0791163 0.0122786458,14.4369511 0.0620948661,15.5602718 C0.111209449,16.6800843 0.292231771,17.44978 0.551837426,18.1170367 C0.819161086,18.8242867 1.23453013,19.4585664 1.76987909,19.9854958 C2.29680841,20.5201431 2.93459635,20.9362138 3.63412835,21.1993276 C4.30489323,21.4589333 5.07037909,21.6399556 6.19019159,21.6890702 C7.31421391,21.7388864 7.67204874,21.7508142 10.5326224,21.7508142 C13.3931961,21.7508142 13.7510309,21.7388864 14.8750532,21.6890702 C15.9948657,21.6399556 16.7638597,21.4589333 17.4304148,21.1993276 C18.8463181,20.6520508 19.9661306,19.5322383 20.5134074,18.1170367 C20.773013,17.4455702 20.9540353,16.6800843 21.0031499,15.5602718 C21.0529661,14.4369511 21.064894,14.0791163 21.064894,11.217841 C21.064894,8.35796897 21.0606842,8.00013415 21.0115696,6.87611183" id="Fill-1" fill="#FFFFFF" mask="url(#mask-2)"></path>
                </g>
                <path d="M10.5363411,14.7491094 C8.5977183,14.7491094 7.02605164,13.1767411 7.02605164,11.2381183 C7.02605164,9.29949554 8.5977183,7.72712723 10.5363411,7.72712723 C12.4756655,7.72712723 14.0473321,9.29949554 14.0473321,11.2381183 C14.0473321,13.1767411 12.4756655,14.7491094 10.5363411,14.7491094 M10.5363411,5.82569122 C7.54877113,5.82569122 5.12391399,8.24984673 5.12391399,11.2381183 C5.12391399,14.2263899 7.54877113,16.6505454 10.5363411,16.6505454 C13.5253143,16.6505454 15.9494698,14.2263899 15.9494698,11.2381183 C15.9494698,8.24984673 13.5253143,5.82569122 10.5363411,5.82569122" id="Fill-4" fill="#42524A"></path>
                <path d="M17.426626,5.61204278 C17.426626,6.30946987 16.860405,6.87569085 16.1629779,6.87569085 C15.4648492,6.87569085 14.8993298,6.30946987 14.8993298,5.61204278 C14.8993298,4.91391406 15.4648492,4.34839472 16.1629779,4.34839472 C16.860405,4.34839472 17.426626,4.91391406 17.426626,5.61204278" id="Fill-6" fill="#42524A"></path>
            </g>
        </g>
    </g>
</svg>