<?xml version="1.0" encoding="UTF-8"?>
<svg width="400px" height="96px" viewBox="0 0 400 96" version="1.1" xmlns="http://www.w3.org/2000/svg" xmlns:xlink="http://www.w3.org/1999/xlink">
    <!-- Generator: Sketch 64 (93537) - https://sketch.com -->
    <title>Group 15</title>
    <desc>Created with Sketch.</desc>
    <defs>
        <polygon id="path-1" points="0.00068920259 0.0342180637 137.775381 0.0342180637 137.775381 74.3978288 0.00068920259 74.3978288"></polygon>
        <polygon id="path-3" points="0.436564879 0.963559067 54.3686047 0.963559067 54.3686047 25.0419625 0.436564879 25.0419625"></polygon>
    </defs>
    <g id="Page-1" stroke="none" stroke-width="1" fill="none" fill-rule="evenodd">
        <g id="Group-15" transform="translate(0.500000, 0.043597)">
            <g id="Group-3" transform="translate(0.000000, 0.248333)">
                <mask id="mask-2" fill="white">
                    <use xlink:href="#path-1"></use>
                </mask>
                <g id="Clip-2"></g>
                <path d="M97.953723,23.5306741 C98.4462149,13.052004 104.294904,7.91561926 110.882332,7.39808537 C122.699356,8.01300467 124.068316,16.1878142 124.068316,23.9522138 C122.497629,35.7678464 115.812816,37.7099897 111.694804,38.2525656 C100.711121,38.6017618 97.8674673,27.3161841 97.953723,23.5306741 M83.70902,22.8545411 L74.5645301,2.54968319 L66.8543881,2.2255289 C66.2770317,2.9851351 65.7108051,3.73222031 65.1320575,4.4918265 C17.7331875,-15.8951134 -26.3128421,38.5934145 18.9463314,67.74365 C29.2427517,74.3742052 43.1994721,75.6763872 56.2254662,73.2904447 C68.0953564,71.1076203 79.3767605,65.6693408 87.7087779,52.4917037 C84.2863764,51.1046572 80.8542363,49.7064809 77.420705,48.3069135 C54.1400272,75.9184595 25.1469996,64.4269812 24.4207827,36.2032983 C23.8211668,12.8474946 42.6958504,2.90027067 60.6203306,13.8130014 C65.8694042,17.0072429 70.7790201,22.4455224 75.4215217,29.2944991 C78.3722996,28.4375075 81.3355985,27.5819071 84.2863764,26.7249155 C85.023723,33.9606514 95.1420671,44.3892376 112.006438,44.2821136 C128.581434,42.508308 138.580133,32.3565746 137.724533,22.2034501 C137.778791,3.40806602 117.245773,1.69408281 110.860072,1.58556764 C104.958516,1.74277551 87.0451659,2.71941205 83.70902,22.8545411" id="Fill-1" fill="#F4F0E9" mask="url(#mask-2)"></path>
            </g>
            <path d="M156.3008,9.88850854 C158.256855,8.22460925 170.92948,5.92074871 173.742527,15.0499352 C171.732214,18.9676111 168.02183,19.9804194 163.881558,20.5229953 L156.3008,20.5229953 L156.3008,9.88850854 Z M137.157611,2.79885072 C146.140719,2.93240785 155.123828,2.87258539 164.086068,3.04092302 C167.380477,3.11187525 170.651236,3.29273387 173.955383,3.49863445 C188.84283,5.10271127 189.281064,13.6141961 185.323043,19.3655001 C182.746503,23.1273594 177.806281,25.02081 175.453728,24.888644 C179.442356,27.0339055 183.814961,28.8313619 185.740409,32.6154807 C188.607714,38.2596608 191.013134,48.95397 196.874344,43.1303225 L196.874344,14.1331212 C196.712962,9.79251435 196.692094,8.42911861 190.597159,8.1174853 L190.597159,3.12578745 L212.101248,3.28160411 L228.871016,26.7445317 C228.786151,21.9336925 228.699896,17.1103323 228.62477,12.2883633 C228.62477,7.58603921 225.128634,8.52650402 222.625829,8.33312442 L222.485315,3.01727228 L284.212362,3.65584232 L291.569134,16.0627435 L286.406316,17.9784536 C279.357003,7.65699144 260.160948,6.838954 260.760564,11.9029953 L260.707698,19.5825304 L265.390544,19.77591 C270.609011,18.6782374 269.754802,16.2909036 270.545015,13.3373433 L275.988859,13.3498642 L275.999989,31.423205 L270.321029,31.5191992 C269.359696,23.573941 264.619809,25.2253193 260.738304,25.0931534 C260.696568,28.3736505 260.65344,31.6527564 260.611703,34.9318622 C260.782823,36.6319332 259.818708,37.7643864 263.722472,38.8147576 C277.773795,40.0793767 283.678133,33.0509326 288.522362,28.1065362 L293.463976,30.2295382 L285.346206,44.1306098 L241.542249,43.9859229 C241.542249,42.43193 241.53251,40.8876756 241.53251,39.3448125 C244.110441,38.8258874 247.254599,39.8386956 247.553711,34.8956905 L247.926558,13.0730114 C247.873692,6.18647175 234.753095,6.46471578 235.554437,12.709903 L235.618434,43.8648867 L226.528201,43.9622721 L203.696888,12.9144123 C203.696888,12.9144123 203.65376,32.9785891 203.524376,37.1132954 C203.48264,38.3667847 202.359925,47.0257389 212.154115,42.6614813 C212.326626,42.5877466 212.316887,42.4082792 212.305758,42.6113974 C212.305758,43.5518622 212.123508,46.6751514 212.134638,47.4834503 C212.134638,47.5794445 212.219502,47.3985859 212.154115,47.4347576 C207.514396,49.7622689 202.510177,51.317653 197.366836,51.5945058 C194.648392,51.7391927 192.222104,51.7990152 189.997543,51.2327886 C181.657178,49.1584793 176.609831,41.3342573 175.603979,39.8748674 C174.790116,39.3197705 169.893021,24.995768 156.042033,25.9974465 L156.225674,32.9785891 C156.31193,38.3083535 158.963595,38.355655 163.220729,38.8147576 L163.197078,43.4795187 L136.975361,43.4795187 L136.975361,38.8147576 C142.751707,38.3918267 143.135684,37.7769074 143.231678,32.2551547 C143.221939,25.9014523 143.21081,19.5588797 143.19968,13.2051773 C143.788166,7.03094238 139.41417,7.81559053 137.157611,7.75437685 L137.157611,2.79885072 Z" id="Fill-4" fill="#F4F0E9"></path>
            <path d="M318.498843,13.8074365 C323.18169,8.82825967 342.977361,11.3477593 343.179088,19.9093281 C342.742245,27.4678271 330.624718,30.0012389 318.369459,28.7338374 C318.412587,23.7546605 318.455715,18.7880046 318.498843,13.8074365 L318.498843,13.8074365 Z M290.853908,3.33015769 L339.265586,3.67935394 C347.329098,3.55831779 357.745163,5.98182327 361.41381,12.2645734 C365.872671,19.9093281 364.535708,29.8440311 346.077,35.3657838 C346.06587,35.3657838 351.659966,37.5360872 356.996686,42.262062 C369.071086,52.9814131 366.162045,70.3911419 398.865456,60.5774751 C398.865456,60.5649541 398.9378,60.5162614 398.9378,60.5162614 C398.873804,62.7352575 399.003187,65.3646636 399.003187,67.7019134 C385.035337,76.9034434 364.996202,75.6485628 354.311632,66.4011226 C343.31821,55.5732563 337.052155,34.5087922 318.486322,37.042204 C318.905079,44.2876785 314.734201,56.1283531 328.721528,55.1503253 L328.710399,62.0841665 L290.767652,61.9269586 L290.767652,54.8734725 C300.27525,54.7301769 299.270789,51.4371588 299.558772,46.9393441 C299.622768,36.8001317 299.688155,26.6595282 299.75076,16.5203158 C300.061002,9.51552242 294.586551,11.2865457 290.820518,10.2389569 L290.853908,3.33015769 Z" id="Fill-6" fill="#F4F0E9"></path>
            <path d="M117.309908,71.2713669 L118.30463,70.4519383 L123.201725,70.3670738 L129.704288,78.6142268 L123.831948,79.6270351 C108.561916,67.4983779 93.5784748,73.8033876 93.1193721,81.1587684 C92.6602695,88.5141493 106.732461,96.9045979 125.415156,85.8610925 C127.287739,86.572006 129.168668,87.2829195 131.05238,88.0077452 C125.575147,93.9872093 93.1513702,100.07658 80.896112,87.6571577 C79.4854148,86.2228097 78.8969287,84.0399853 78.1484522,81.9545463 C82.3193302,64.2429228 114.517729,69.9330131 117.309908,71.2713669" id="Fill-8" fill="#F4F0E9"></path>
            <path d="M156.47192,76.2275887 L162.235745,82.8943155 L150.834696,82.7384989 L156.47192,76.2275887 Z M128.025642,94.3496222 L151.936542,94.5304808 L152.000538,91.9859391 C150.450719,91.877424 149.104018,91.6965654 147.552808,91.5880502 C145.050003,90.8395737 144.94427,90.4903775 145.595361,89.3690541 L148.36528,86.1622916 L165.111397,86.1734214 L167.615593,89.5499127 C168.268076,90.8896577 168.032959,91.2861554 166.288369,91.6965654 L161.658389,91.864903 L161.690387,94.5903032 L213.973831,94.9394995 L213.98496,92.0944543 L208.80823,91.8176015 C206.455677,91.6478726 206.445939,90.0924885 206.498805,88.7666557 L206.422288,83.630271 L212.283498,83.7638281 C214.829431,84.4983924 216.134396,85.6197158 216.519764,88.1753872 L221.930219,88.1628662 L221.887091,76.6727791 L216.5615,76.7214718 C215.963275,78.530058 215.53478,79.7849385 213.321348,80.3386442 L206.294296,80.3873369 C206.241429,78.8319527 206.198301,77.2765686 206.145435,75.7337055 C207.546394,71.331885 226.603327,75.2857326 231.789796,79.0128114 L237.39363,78.0834763 L230.249715,70.5722788 L186.148037,70.3441187 L186.212033,73.5981826 C190.73489,73.2615073 192.607472,73.7915622 192.767462,77.4699482 C192.745203,81.532311 192.734073,85.5946738 192.714596,89.6472981 C191.75048,93.2032568 184.8862,91.8050805 183.238995,90.8047932 L165.946129,70.4888056 L153.797995,70.3802904 L137.638973,88.3089443 C134.923311,90.7686215 131.50091,91.7452581 128.025642,91.7202161 L128.025642,94.3496222 Z" id="Fill-10" fill="#F4F0E9"></path>
            <g id="Group-14" transform="translate(236.507423, 70.091195)">
                <mask id="mask-4" fill="white">
                    <use xlink:href="#path-3"></use>
                </mask>
                <g id="Clip-13"></g>
                <path d="M0.436564879,0.963559067 L44.7427526,0.963559067 L52.5711483,8.63196446 C50.8056899,8.94498899 49.043014,9.25801352 47.2775557,9.57242927 C41.4177364,5.59353968 32.1229947,3.09769076 22.2745474,4.38735182 C20.8847184,4.48473723 20.104244,5.02592187 20.1571103,6.51035375 L20.2224977,10.5963673 C22.3274137,10.5601956 24.4239825,10.5254151 26.5302898,10.4892433 C29.3962032,10.2833428 29.9958191,8.92133825 30.3909256,6.87207099 L36.1867487,6.72738409 L36.0796248,17.7834105 L30.550916,17.7110671 C29.9109547,15.6492788 28.4446087,14.2984041 25.7498153,13.8643434 L20.1459806,13.6473131 L20.1251123,19.6156474 C20.2224977,21.3518902 21.2060903,21.8346436 22.8839018,22.0155022 C36.1867487,22.5942498 42.893821,19.4347888 49.4047312,15.8301374 L54.3686047,17.2283137 L45.9823297,25.0427972 L0.436564879,25.0427972 L0.436564879,22.1838398 L4.55457648,21.7984718 C6.33951192,21.4005829 6.35064168,19.6879909 6.33951192,19.0007281 L6.45776563,6.53400449 C6.44663587,5.3528586 6.3729012,4.43604453 5.01367913,4.20649321 L0.436564879,3.43436603 L0.436564879,0.963559067 Z" id="Fill-12" fill="#F4F0E9" mask="url(#mask-4)"></path>
            </g>
        </g>
    </g>
</svg>